<?xml version="1.0" encoding="UTF-8" standalone="no"?>
<!-- Generator: Adobe Illustrator 17.1.0, SVG Export Plug-In . SVG Version: 6.00 Build 0)  -->

<svg
   xmlns:dc="http://purl.org/dc/elements/1.1/"
   xmlns:cc="http://creativecommons.org/ns#"
   xmlns:rdf="http://www.w3.org/1999/02/22-rdf-syntax-ns#"
   xmlns:svg="http://www.w3.org/2000/svg"
   xmlns="http://www.w3.org/2000/svg"
   xmlns:sodipodi="http://sodipodi.sourceforge.net/DTD/sodipodi-0.dtd"
   xmlns:inkscape="http://www.inkscape.org/namespaces/inkscape"
   version="1.1"
   id="Capa_1"
   x="0px"
   y="0px"
   viewBox="0 0 296 296"
   style="enable-background:new 0 0 296 296;"
   xml:space="preserve"
   sodipodi:docname="random_pressed.svg"
   inkscape:version="0.92.5 (2060ec1f9f, 2020-04-08)"><metadata
   id="metadata41"><rdf:RDF><cc:Work
       rdf:about=""><dc:format>image/svg+xml</dc:format><dc:type
         rdf:resource="http://purl.org/dc/dcmitype/StillImage" /><dc:title></dc:title></cc:Work></rdf:RDF></metadata><defs
   id="defs39" /><sodipodi:namedview
   pagecolor="#ffffff"
   bordercolor="#666666"
   borderopacity="1"
   objecttolerance="10"
   gridtolerance="10"
   guidetolerance="10"
   inkscape:pageopacity="0"
   inkscape:pageshadow="2"
   inkscape:window-width="1024"
   inkscape:window-height="719"
   id="namedview37"
   showgrid="false"
   inkscape:zoom="0.7972973"
   inkscape:cx="148"
   inkscape:cy="148"
   inkscape:window-x="-8"
   inkscape:window-y="-8"
   inkscape:window-maximized="1"
   inkscape:current-layer="Capa_1" />
<g
   id="g4">
	<path
   d="M0,0v296h296V0H0z M191.055,120c-22.194,0-32.533,9.534-44.426,26.695C158.498,163.606,168.846,173,191.055,173H209   v-19.288l53.744,32.425L209,219.514V205h-17.945c-31.859,0-50.268-14.206-63.537-30.457C114.396,191.196,96.243,206,64.484,206H36   v-32h28.484c21.683,0,31.695-9.725,43.646-27.198C96.205,129.583,86.183,120,64.484,120H36V88h28.484   c31.623,0,49.755,14.547,62.866,30.95C140.63,102.453,159.062,88,191.055,88H209V74.486l53.744,33.377L209,140.288V120H191.055z"
   id="path2" />
</g>
<g
   id="g6">
</g>
<g
   id="g8">
</g>
<g
   id="g10">
</g>
<g
   id="g12">
</g>
<g
   id="g14">
</g>
<g
   id="g16">
</g>
<g
   id="g18">
</g>
<g
   id="g20">
</g>
<g
   id="g22">
</g>
<g
   id="g24">
</g>
<g
   id="g26">
</g>
<g
   id="g28">
</g>
<g
   id="g30">
</g>
<g
   id="g32">
</g>
<g
   id="g34">
</g>
<path
   style="fill:#000080;stroke-width:1.25423729"
   d="M 0.25084746,147.87458 V 0.50169492 H 147.62373 294.99661 V 147.87458 295.24746 H 147.62373 0.25084746 Z M 236.44925,203.26596 c 14.26546,-8.85509 25.93719,-16.5436 25.93719,-17.08558 0,-0.96355 -51.57062,-32.66174 -53.13825,-32.66174 -0.43667,0 -0.79395,4.30119 -0.79395,9.5582 v 9.55819 l -15.36441,-0.54324 c -21.25484,-0.7515 -28.70668,-4.23695 -40.61793,-18.99821 l -5.18574,-6.42652 5.4986,-6.99885 c 6.01582,-7.65716 9.58137,-10.63563 18.08084,-15.10368 4.83103,-2.53961 7.80793,-3.013 21.54437,-3.42602 l 15.9388,-0.47923 0.36629,10.18129 0.3663,10.18128 26.56046,-16.01431 c 14.60827,-8.80788 26.47516,-16.57873 26.37088,-17.26856 -0.17298,-1.14432 -47.64407,-31.236099 -51.78008,-32.823235 -1.3876,-0.532469 -1.77838,0.6835 -1.77838,5.533568 v 6.215996 l -15.99153,0.75587 c -26.52214,1.253621 -40.40755,6.507139 -56.2137,21.268331 l -9.16969,8.56349 -5.1915,-5.63211 C 114.26285,103.34877 101.33633,95.133402 89.928814,91.309546 80.983657,88.311085 77.479271,87.878862 57.632203,87.326161 L 35.369492,86.70619 v 16.99754 16.99753 l 21.635593,0.42809 c 20.642223,0.40844 21.930058,0.58294 28.049049,3.80065 6.266799,3.29543 21.806886,18.70783 21.806886,21.62769 0,0.80077 -3.07602,5.18513 -6.8356,9.74305 -5.314412,6.44291 -8.727246,9.21861 -15.335853,12.47285 -8.414877,4.14369 -8.705227,4.19017 -28.910162,4.62819 l -20.409913,0.44246 v 16.17618 16.17619 l 20.381355,-0.0186 c 31.916371,-0.029 44.718293,-4.2725 62.034943,-20.56276 l 9.81655,-9.23471 8.12934,7.69614 c 9.4812,8.97596 22.65699,16.30078 33.98328,18.89235 4.40576,1.00808 14.92445,2.22662 23.37487,2.70787 l 15.36441,0.87501 v 6.82514 c 0,3.75382 0.46301,6.63701 1.02891,6.40706 0.5659,-0.22994 12.70065,-7.66314 26.9661,-16.51822 z"
   id="path43"
   inkscape:connector-curvature="0" /></svg>