<?xml version="1.0" encoding="iso-8859-1"?>
<!-- Generator: Adobe Illustrator 17.1.0, SVG Export Plug-In . SVG Version: 6.00 Build 0)  -->
<!DOCTYPE svg PUBLIC "-//W3C//DTD SVG 1.1//EN" "http://www.w3.org/Graphics/SVG/1.1/DTD/svg11.dtd">
<svg version="1.1" id="Capa_1" xmlns="http://www.w3.org/2000/svg" xmlns:xlink="http://www.w3.org/1999/xlink" x="0px" y="0px"
	 viewBox="0 0 296 296" style="enable-background:new 0 0 296 296;" xml:space="preserve">
<g>
	<path d="M0,0v296h296V0H0z M191.055,120c-22.194,0-32.533,9.534-44.426,26.695C158.498,163.606,168.846,173,191.055,173H209
		v-19.288l53.744,32.425L209,219.514V205h-17.945c-31.859,0-50.268-14.206-63.537-30.457C114.396,191.196,96.243,206,64.484,206H36
		v-32h28.484c21.683,0,31.695-9.725,43.646-27.198C96.205,129.583,86.183,120,64.484,120H36V88h28.484
		c31.623,0,49.755,14.547,62.866,30.95C140.63,102.453,159.062,88,191.055,88H209V74.486l53.744,33.377L209,140.288V120H191.055z"/>
</g>
<g>
</g>
<g>
</g>
<g>
</g>
<g>
</g>
<g>
</g>
<g>
</g>
<g>
</g>
<g>
</g>
<g>
</g>
<g>
</g>
<g>
</g>
<g>
</g>
<g>
</g>
<g>
</g>
<g>
</g>
</svg>
