<?xml version="1.0" encoding="UTF-8" standalone="no"?>
<!-- Generator: Adobe Illustrator 16.0.0, SVG Export Plug-In . SVG Version: 6.00 Build 0)  -->

<svg
   xmlns:dc="http://purl.org/dc/elements/1.1/"
   xmlns:cc="http://creativecommons.org/ns#"
   xmlns:rdf="http://www.w3.org/1999/02/22-rdf-syntax-ns#"
   xmlns:svg="http://www.w3.org/2000/svg"
   xmlns="http://www.w3.org/2000/svg"
   xmlns:sodipodi="http://sodipodi.sourceforge.net/DTD/sodipodi-0.dtd"
   xmlns:inkscape="http://www.inkscape.org/namespaces/inkscape"
   version="1.1"
   id="Capa_1"
   x="0px"
   y="0px"
   width="292.362px"
   height="292.362px"
   viewBox="0 0 292.362 292.362"
   style="enable-background:new 0 0 292.362 292.362;"
   xml:space="preserve"
   sodipodi:docname="down.svg"
   inkscape:version="0.92.5 (2060ec1f9f, 2020-04-08)"><metadata
   id="metadata105"><rdf:RDF><cc:Work
       rdf:about=""><dc:format>image/svg+xml</dc:format><dc:type
         rdf:resource="http://purl.org/dc/dcmitype/StillImage" /></cc:Work></rdf:RDF></metadata><defs
   id="defs103" /><sodipodi:namedview
   pagecolor="#ffffff"
   bordercolor="#666666"
   borderopacity="1"
   objecttolerance="10"
   gridtolerance="10"
   guidetolerance="10"
   inkscape:pageopacity="0"
   inkscape:pageshadow="2"
   inkscape:window-width="1024"
   inkscape:window-height="719"
   id="namedview101"
   showgrid="false"
   inkscape:zoom="0.80721845"
   inkscape:cx="146.181"
   inkscape:cy="146.181"
   inkscape:window-x="-8"
   inkscape:window-y="-8"
   inkscape:window-maximized="1"
   inkscape:current-layer="Capa_1" />
<g
   id="g68">
	<path
   d="M286.935,69.377c-3.614-3.617-7.898-5.424-12.848-5.424H18.274c-4.952,0-9.233,1.807-12.85,5.424   C1.807,72.998,0,77.279,0,82.228c0,4.948,1.807,9.229,5.424,12.847l127.907,127.907c3.621,3.617,7.902,5.428,12.85,5.428   s9.233-1.811,12.847-5.428L286.935,95.074c3.613-3.617,5.427-7.898,5.427-12.847C292.362,77.279,290.548,72.998,286.935,69.377z"
   id="path66" />
</g>
<g
   id="g70">
</g>
<g
   id="g72">
</g>
<g
   id="g74">
</g>
<g
   id="g76">
</g>
<g
   id="g78">
</g>
<g
   id="g80">
</g>
<g
   id="g82">
</g>
<g
   id="g84">
</g>
<g
   id="g86">
</g>
<g
   id="g88">
</g>
<g
   id="g90">
</g>
<g
   id="g92">
</g>
<g
   id="g94">
</g>
<g
   id="g96">
</g>
<g
   id="g98">
</g>
<path
   style="fill:#666666;stroke-width:1.23882198"
   d="M 137.1376,224.85118 C 135.09354,223.56444 103.79131,192.76632 67.57709,156.41089 5.5549845,94.146964 1.6834423,90.003458 0.87843148,85.026871 -0.18428531,78.457141 2.911248,71.771953 8.9007754,67.701624 l 4.1016106,-2.78735 H 146.2256 279.44882 l 3.98522,2.730721 c 2.19188,1.501897 4.87436,4.235892 5.96107,6.075545 2.8837,4.881721 2.54873,13.628674 -0.68822,17.971047 -4.0087,5.377697 -123.40224,125.104303 -130.31086,130.674383 -5.05206,4.07323 -6.90421,4.83326 -11.76881,4.82936 -3.51473,-0.002 -7.22701,-0.91984 -9.48962,-2.34415 z"
   id="path107"
   inkscape:connector-curvature="0" /><path
   style="fill:#666666;stroke-width:1.23882198"
   d="M 141.59647,225.9526 C 138.23741,225.16026 125.09568,212.69498 76.754289,164.44802 5.9764064,93.808391 1.4865864,88.937015 1.4865864,82.783865 c 0,-5.708542 2.7206788,-10.789866 7.8871048,-14.730491 l 4.1732438,-3.183088 132.279485,0.03282 c 130.28262,0.03233 132.34026,0.07039 136.30618,2.521455 6.86022,4.239859 8.86093,8.884619 8.22609,19.097441 -0.18929,3.045148 -11.07983,14.516218 -66.19384,69.722388 -61.51732,61.62018 -72.15608,71.38118 -77.19809,70.82876 -0.63658,-0.0697 -3.05321,-0.57399 -5.37029,-1.12055 z"
   id="path111"
   inkscape:connector-curvature="0" /></svg>