<?xml version="1.0" encoding="UTF-8" standalone="no"?>
<!-- Generator: Adobe Illustrator 16.0.0, SVG Export Plug-In . SVG Version: 6.00 Build 0)  -->

<svg
   xmlns:dc="http://purl.org/dc/elements/1.1/"
   xmlns:cc="http://creativecommons.org/ns#"
   xmlns:rdf="http://www.w3.org/1999/02/22-rdf-syntax-ns#"
   xmlns:svg="http://www.w3.org/2000/svg"
   xmlns="http://www.w3.org/2000/svg"
   xmlns:sodipodi="http://sodipodi.sourceforge.net/DTD/sodipodi-0.dtd"
   xmlns:inkscape="http://www.inkscape.org/namespaces/inkscape"
   version="1.1"
   id="Capa_1"
   x="0px"
   y="0px"
   width="292.362px"
   height="292.362px"
   viewBox="0 0 292.362 292.362"
   style="enable-background:new 0 0 292.362 292.362;"
   xml:space="preserve"
   sodipodi:docname="up.svg"
   inkscape:version="0.92.5 (2060ec1f9f, 2020-04-08)"><metadata
   id="metadata41"><rdf:RDF><cc:Work
       rdf:about=""><dc:format>image/svg+xml</dc:format><dc:type
         rdf:resource="http://purl.org/dc/dcmitype/StillImage" /><dc:title /></cc:Work></rdf:RDF></metadata><defs
   id="defs39" /><sodipodi:namedview
   pagecolor="#ffffff"
   bordercolor="#666666"
   borderopacity="1"
   objecttolerance="10"
   gridtolerance="10"
   guidetolerance="10"
   inkscape:pageopacity="0"
   inkscape:pageshadow="2"
   inkscape:window-width="1366"
   inkscape:window-height="719"
   id="namedview37"
   showgrid="false"
   inkscape:zoom="0.80721845"
   inkscape:cx="146.181"
   inkscape:cy="146.181"
   inkscape:window-x="1016"
   inkscape:window-y="-8"
   inkscape:window-maximized="1"
   inkscape:current-layer="Capa_1" />
<g
   id="g4"
   transform="rotate(180,146.181,146.1815)">
	<path
   d="m 286.935,69.377 c -3.614,-3.617 -7.898,-5.424 -12.848,-5.424 H 18.274 c -4.952,0 -9.233,1.807 -12.85,5.424 C 1.807,72.998 0,77.279 0,82.228 c 0,4.948 1.807,9.229 5.424,12.847 l 127.907,127.907 c 3.621,3.617 7.902,5.428 12.85,5.428 4.948,0 9.233,-1.811 12.847,-5.428 L 286.935,95.074 c 3.613,-3.617 5.427,-7.898 5.427,-12.847 0,-4.948 -1.814,-9.229 -5.427,-12.85 z"
   id="path2"
   inkscape:connector-curvature="0" />
</g>
<g
   id="g6">
</g>
<g
   id="g8">
</g>
<g
   id="g10">
</g>
<g
   id="g12">
</g>
<g
   id="g14">
</g>
<g
   id="g16">
</g>
<g
   id="g18">
</g>
<g
   id="g20">
</g>
<g
   id="g22">
</g>
<g
   id="g24">
</g>
<g
   id="g26">
</g>
<g
   id="g28">
</g>
<g
   id="g30">
</g>
<g
   id="g32">
</g>
<g
   id="g34">
</g>
<path
   style="fill:#666666;stroke-width:1.23882198"
   d="M 14.989747,227.28615 C 4.8012109,224.82152 -1.1462294,215.26934 1.2869836,205.27812 1.8649406,202.90493 23.208542,180.67788 68.644256,135.13282 105.22543,98.463613 136.66084,67.6634 138.50072,66.687904 c 4.28165,-2.270106 11.32668,-2.270106 15.60832,0 1.83989,0.975496 33.27127,31.775709 69.84752,68.444916 58.49714,58.6458 66.60341,67.22951 67.34244,71.30873 0.46208,2.55059 0.48261,6.06202 0.0456,7.80316 -1.29898,5.17553 -8.21144,11.71862 -13.72458,12.99118 -5.83717,1.34734 -257.069483,1.39542 -262.630276,0.0503 z"
   id="path23"
   inkscape:connector-curvature="0" /><path
   style="fill:#666666;stroke-width:1.23882198"
   d="m 10.80438,225.08169 c -4.3716222,-2.15362 -8.8096952,-8.10207 -8.8176336,-11.81848 -0.00255,-1.19236 -0.5136767,-2.16794 -1.13584372,-2.16794 -0.62216703,0 -0.48382331,-1.81177 0.30743062,-4.02617 0.9601144,-2.68697 24.1028907,-26.7563 69.5761307,-72.36173 55.747566,-55.909616 68.813276,-68.411757 71.853956,-68.75462 9.95353,-1.12235 7.82401,-2.928365 72.28635,61.30476 33.62532,33.50575 64.42554,64.69679 68.44492,69.31342 6.5377,7.50914 7.30796,8.96805 7.30796,13.84169 0,4.06972 -0.82078,6.42329 -3.24462,9.30385 -6.70789,7.97188 2.49835,7.48624 -141.32633,7.45528 -119.719128,-0.0258 -131.429323,-0.20672 -135.25232,-2.09006 z"
   id="path109"
   inkscape:connector-curvature="0" /></svg>